<svg width="321" height="54" viewBox="0 0 321 54" fill="none" xmlns="http://www.w3.org/2000/svg">
<g clip-path="url(#clip0)">
<path d="M60.6397 44.9083H59.3288C54.0477 44.9083 50.042 40.0242 51.3916 34.8991C45.3975 31.8099 45.6457 23.5579 51.4821 20.6781C50.2032 15.7024 54.0163 10.7454 59.3511 10.7454L74.6247 10.7454C73.7253 8.34031 74.011 5.52519 75.6989 3.26214C78.3383 -0.276189 83.3681 -1.05232 86.9791 1.50834L107.373 15.9689C107.876 16.3256 108.286 16.7968 108.569 17.3433C108.852 17.8897 109 18.4955 109 19.1103L109 45.9773C109 47.7738 107.754 49.3324 105.995 49.7359L90.1368 53.3741C88.3231 53.7899 86.468 54 84.6069 54.0003H68.6753C63.7565 54.0003 59.9576 49.7185 60.6397 44.9083ZM84.6068 48.2142C86.0273 48.2142 87.4487 48.0534 88.8313 47.7363L103.187 44.4427V20.1041L83.6066 6.21888C81.152 4.47846 78.4267 8.02969 80.8692 9.7619L85.4804 13.0318C87.0093 14.116 86.2417 16.5311 84.3562 16.5311L59.3511 16.5311C56.2457 16.5311 56.3468 20.9392 59.4348 20.9392L77.9996 20.9392C79.0697 20.9392 79.9371 21.8026 79.9371 22.8678V23.6941C79.9371 24.7593 79.0697 25.6227 77.9996 25.6227L55.1128 25.6227C52.0052 25.6227 52.1085 30.0308 55.1965 30.0308L77.9996 30.0308C79.0697 30.0308 79.9371 30.8942 79.9371 31.9594V32.7858C79.9371 33.851 79.0697 34.7144 77.9996 34.7144L59.2452 34.7144C56.1364 34.7144 56.2408 39.1223 59.3288 39.1223L77.9996 39.1223C79.0697 39.1223 79.9371 39.9857 79.9371 41.0509V41.8774C79.9371 42.9426 79.0697 43.806 77.9996 43.806H68.759C65.5813 43.806 65.6542 48.214 68.6753 48.214H84.6068V48.2142Z" fill="black"/>
<path d="M61.68 20V19.416H63.28V14.912H63.224L61.816 16.224L61.424 15.8L62.904 14.416H63.952V19.416H65.424V20H61.68ZM68.1969 20.096C67.8555 20.096 67.5622 20.032 67.3169 19.904C67.0715 19.7707 66.8689 19.5813 66.7089 19.336C66.5489 19.0907 66.4315 18.7893 66.3569 18.432C66.2822 18.0747 66.2449 17.6667 66.2449 17.208C66.2449 16.7547 66.2822 16.3493 66.3569 15.992C66.4315 15.6293 66.5489 15.3253 66.7089 15.08C66.8689 14.8347 67.0715 14.648 67.3169 14.52C67.5622 14.3867 67.8555 14.32 68.1969 14.32C68.5382 14.32 68.8315 14.3867 69.0769 14.52C69.3222 14.648 69.5249 14.8347 69.6849 15.08C69.8449 15.3253 69.9622 15.6293 70.0369 15.992C70.1115 16.3493 70.1489 16.7547 70.1489 17.208C70.1489 17.6667 70.1115 18.0747 70.0369 18.432C69.9622 18.7893 69.8449 19.0907 69.6849 19.336C69.5249 19.5813 69.3222 19.7707 69.0769 19.904C68.8315 20.032 68.5382 20.096 68.1969 20.096ZM68.1969 19.512C68.4209 19.512 68.6129 19.4693 68.7729 19.384C68.9329 19.2933 69.0609 19.168 69.1569 19.008C69.2582 18.848 69.3329 18.656 69.3809 18.432C69.4289 18.2027 69.4529 17.9467 69.4529 17.664V16.752C69.4529 16.4747 69.4289 16.2213 69.3809 15.992C69.3329 15.7627 69.2582 15.568 69.1569 15.408C69.0609 15.248 68.9329 15.1253 68.7729 15.04C68.6129 14.9493 68.4209 14.904 68.1969 14.904C67.9729 14.904 67.7809 14.9493 67.6209 15.04C67.4609 15.1253 67.3302 15.248 67.2289 15.408C67.1329 15.568 67.0609 15.7627 67.0129 15.992C66.9649 16.2213 66.9409 16.4747 66.9409 16.752V17.664C66.9409 17.9467 66.9649 18.2027 67.0129 18.432C67.0609 18.656 67.1329 18.848 67.2289 19.008C67.3302 19.168 67.4609 19.2933 67.6209 19.384C67.7809 19.4693 67.9729 19.512 68.1969 19.512ZM68.1969 17.68C68.0102 17.68 67.8795 17.6427 67.8049 17.568C67.7355 17.4933 67.7009 17.4027 67.7009 17.296V17.12C67.7009 17.0133 67.7355 16.9227 67.8049 16.848C67.8795 16.7733 68.0102 16.736 68.1969 16.736C68.3835 16.736 68.5115 16.7733 68.5809 16.848C68.6555 16.9227 68.6929 17.0133 68.6929 17.12V17.296C68.6929 17.4027 68.6555 17.4933 68.5809 17.568C68.5115 17.6427 68.3835 17.68 68.1969 17.68ZM71.2738 20V19.416H72.8738V14.912H72.8178L71.4098 16.224L71.0178 15.8L72.4978 14.416H73.5458V19.416H75.0178V20H71.2738ZM77.7906 20.096C77.4493 20.096 77.156 20.032 76.9106 19.904C76.6653 19.7707 76.4626 19.5813 76.3026 19.336C76.1426 19.0907 76.0253 18.7893 75.9506 18.432C75.876 18.0747 75.8386 17.6667 75.8386 17.208C75.8386 16.7547 75.876 16.3493 75.9506 15.992C76.0253 15.6293 76.1426 15.3253 76.3026 15.08C76.4626 14.8347 76.6653 14.648 76.9106 14.52C77.156 14.3867 77.4493 14.32 77.7906 14.32C78.132 14.32 78.4253 14.3867 78.6706 14.52C78.916 14.648 79.1186 14.8347 79.2786 15.08C79.4386 15.3253 79.556 15.6293 79.6306 15.992C79.7053 16.3493 79.7426 16.7547 79.7426 17.208C79.7426 17.6667 79.7053 18.0747 79.6306 18.432C79.556 18.7893 79.4386 19.0907 79.2786 19.336C79.1186 19.5813 78.916 19.7707 78.6706 19.904C78.4253 20.032 78.132 20.096 77.7906 20.096ZM77.7906 19.512C78.0146 19.512 78.2066 19.4693 78.3666 19.384C78.5266 19.2933 78.6546 19.168 78.7506 19.008C78.852 18.848 78.9266 18.656 78.9746 18.432C79.0226 18.2027 79.0466 17.9467 79.0466 17.664V16.752C79.0466 16.4747 79.0226 16.2213 78.9746 15.992C78.9266 15.7627 78.852 15.568 78.7506 15.408C78.6546 15.248 78.5266 15.1253 78.3666 15.04C78.2066 14.9493 78.0146 14.904 77.7906 14.904C77.5666 14.904 77.3746 14.9493 77.2146 15.04C77.0546 15.1253 76.924 15.248 76.8226 15.408C76.7266 15.568 76.6546 15.7627 76.6066 15.992C76.5586 16.2213 76.5346 16.4747 76.5346 16.752V17.664C76.5346 17.9467 76.5586 18.2027 76.6066 18.432C76.6546 18.656 76.7266 18.848 76.8226 19.008C76.924 19.168 77.0546 19.2933 77.2146 19.384C77.3746 19.4693 77.5666 19.512 77.7906 19.512ZM77.7906 17.68C77.604 17.68 77.4733 17.6427 77.3986 17.568C77.3293 17.4933 77.2946 17.4027 77.2946 17.296V17.12C77.2946 17.0133 77.3293 16.9227 77.3986 16.848C77.4733 16.7733 77.604 16.736 77.7906 16.736C77.9773 16.736 78.1053 16.7733 78.1746 16.848C78.2493 16.9227 78.2866 17.0133 78.2866 17.12V17.296C78.2866 17.4027 78.2493 17.4933 78.1746 17.568C78.1053 17.6427 77.9773 17.68 77.7906 17.68ZM80.8675 20V19.416H82.4675V14.912H82.4115L81.0035 16.224L80.6115 15.8L82.0915 14.416H83.1395V19.416H84.6115V20H80.8675ZM87.3844 20.096C87.043 20.096 86.7497 20.032 86.5044 19.904C86.259 19.7707 86.0564 19.5813 85.8964 19.336C85.7364 19.0907 85.619 18.7893 85.5444 18.432C85.4697 18.0747 85.4324 17.6667 85.4324 17.208C85.4324 16.7547 85.4697 16.3493 85.5444 15.992C85.619 15.6293 85.7364 15.3253 85.8964 15.08C86.0564 14.8347 86.259 14.648 86.5044 14.52C86.7497 14.3867 87.043 14.32 87.3844 14.32C87.7257 14.32 88.019 14.3867 88.2644 14.52C88.5097 14.648 88.7124 14.8347 88.8724 15.08C89.0324 15.3253 89.1497 15.6293 89.2244 15.992C89.299 16.3493 89.3364 16.7547 89.3364 17.208C89.3364 17.6667 89.299 18.0747 89.2244 18.432C89.1497 18.7893 89.0324 19.0907 88.8724 19.336C88.7124 19.5813 88.5097 19.7707 88.2644 19.904C88.019 20.032 87.7257 20.096 87.3844 20.096ZM87.3844 19.512C87.6084 19.512 87.8004 19.4693 87.9604 19.384C88.1204 19.2933 88.2484 19.168 88.3444 19.008C88.4457 18.848 88.5204 18.656 88.5684 18.432C88.6164 18.2027 88.6404 17.9467 88.6404 17.664V16.752C88.6404 16.4747 88.6164 16.2213 88.5684 15.992C88.5204 15.7627 88.4457 15.568 88.3444 15.408C88.2484 15.248 88.1204 15.1253 87.9604 15.04C87.8004 14.9493 87.6084 14.904 87.3844 14.904C87.1604 14.904 86.9684 14.9493 86.8084 15.04C86.6484 15.1253 86.5177 15.248 86.4164 15.408C86.3204 15.568 86.2484 15.7627 86.2004 15.992C86.1524 16.2213 86.1284 16.4747 86.1284 16.752V17.664C86.1284 17.9467 86.1524 18.2027 86.2004 18.432C86.2484 18.656 86.3204 18.848 86.4164 19.008C86.5177 19.168 86.6484 19.2933 86.8084 19.384C86.9684 19.4693 87.1604 19.512 87.3844 19.512ZM87.3844 17.68C87.1977 17.68 87.067 17.6427 86.9924 17.568C86.923 17.4933 86.8884 17.4027 86.8884 17.296V17.12C86.8884 17.0133 86.923 16.9227 86.9924 16.848C87.067 16.7733 87.1977 16.736 87.3844 16.736C87.571 16.736 87.699 16.7733 87.7684 16.848C87.843 16.9227 87.8804 17.0133 87.8804 17.12V17.296C87.8804 17.4027 87.843 17.4933 87.7684 17.568C87.699 17.6427 87.571 17.68 87.3844 17.68ZM92.1813 20.096C91.8399 20.096 91.5466 20.032 91.3013 19.904C91.0559 19.7707 90.8533 19.5813 90.6933 19.336C90.5333 19.0907 90.4159 18.7893 90.3413 18.432C90.2666 18.0747 90.2293 17.6667 90.2293 17.208C90.2293 16.7547 90.2666 16.3493 90.3413 15.992C90.4159 15.6293 90.5333 15.3253 90.6933 15.08C90.8533 14.8347 91.0559 14.648 91.3013 14.52C91.5466 14.3867 91.8399 14.32 92.1813 14.32C92.5226 14.32 92.8159 14.3867 93.0613 14.52C93.3066 14.648 93.5093 14.8347 93.6693 15.08C93.8293 15.3253 93.9466 15.6293 94.0213 15.992C94.0959 16.3493 94.1333 16.7547 94.1333 17.208C94.1333 17.6667 94.0959 18.0747 94.0213 18.432C93.9466 18.7893 93.8293 19.0907 93.6693 19.336C93.5093 19.5813 93.3066 19.7707 93.0613 19.904C92.8159 20.032 92.5226 20.096 92.1813 20.096ZM92.1813 19.512C92.4053 19.512 92.5973 19.4693 92.7573 19.384C92.9173 19.2933 93.0453 19.168 93.1413 19.008C93.2426 18.848 93.3173 18.656 93.3653 18.432C93.4133 18.2027 93.4373 17.9467 93.4373 17.664V16.752C93.4373 16.4747 93.4133 16.2213 93.3653 15.992C93.3173 15.7627 93.2426 15.568 93.1413 15.408C93.0453 15.248 92.9173 15.1253 92.7573 15.04C92.5973 14.9493 92.4053 14.904 92.1813 14.904C91.9573 14.904 91.7653 14.9493 91.6053 15.04C91.4453 15.1253 91.3146 15.248 91.2133 15.408C91.1173 15.568 91.0453 15.7627 90.9973 15.992C90.9493 16.2213 90.9253 16.4747 90.9253 16.752V17.664C90.9253 17.9467 90.9493 18.2027 90.9973 18.432C91.0453 18.656 91.1173 18.848 91.2133 19.008C91.3146 19.168 91.4453 19.2933 91.6053 19.384C91.7653 19.4693 91.9573 19.512 92.1813 19.512ZM92.1813 17.68C91.9946 17.68 91.8639 17.6427 91.7893 17.568C91.7199 17.4933 91.6853 17.4027 91.6853 17.296V17.12C91.6853 17.0133 91.7199 16.9227 91.7893 16.848C91.8639 16.7733 91.9946 16.736 92.1813 16.736C92.3679 16.736 92.4959 16.7733 92.5653 16.848C92.6399 16.9227 92.6773 17.0133 92.6773 17.12V17.296C92.6773 17.4027 92.6399 17.4933 92.5653 17.568C92.4959 17.6427 92.3679 17.68 92.1813 17.68ZM96.9781 20.096C96.6368 20.096 96.3435 20.032 96.0981 19.904C95.8528 19.7707 95.6501 19.5813 95.4901 19.336C95.3301 19.0907 95.2128 18.7893 95.1381 18.432C95.0635 18.0747 95.0261 17.6667 95.0261 17.208C95.0261 16.7547 95.0635 16.3493 95.1381 15.992C95.2128 15.6293 95.3301 15.3253 95.4901 15.08C95.6501 14.8347 95.8528 14.648 96.0981 14.52C96.3435 14.3867 96.6368 14.32 96.9781 14.32C97.3195 14.32 97.6128 14.3867 97.8581 14.52C98.1035 14.648 98.3061 14.8347 98.4661 15.08C98.6261 15.3253 98.7435 15.6293 98.8181 15.992C98.8928 16.3493 98.9301 16.7547 98.9301 17.208C98.9301 17.6667 98.8928 18.0747 98.8181 18.432C98.7435 18.7893 98.6261 19.0907 98.4661 19.336C98.3061 19.5813 98.1035 19.7707 97.8581 19.904C97.6128 20.032 97.3195 20.096 96.9781 20.096ZM96.9781 19.512C97.2021 19.512 97.3941 19.4693 97.5541 19.384C97.7141 19.2933 97.8421 19.168 97.9381 19.008C98.0395 18.848 98.1141 18.656 98.1621 18.432C98.2101 18.2027 98.2341 17.9467 98.2341 17.664V16.752C98.2341 16.4747 98.2101 16.2213 98.1621 15.992C98.1141 15.7627 98.0395 15.568 97.9381 15.408C97.8421 15.248 97.7141 15.1253 97.5541 15.04C97.3941 14.9493 97.2021 14.904 96.9781 14.904C96.7541 14.904 96.5621 14.9493 96.4021 15.04C96.2421 15.1253 96.1115 15.248 96.0101 15.408C95.9141 15.568 95.8421 15.7627 95.7941 15.992C95.7461 16.2213 95.7221 16.4747 95.7221 16.752V17.664C95.7221 17.9467 95.7461 18.2027 95.7941 18.432C95.8421 18.656 95.9141 18.848 96.0101 19.008C96.1115 19.168 96.2421 19.2933 96.4021 19.384C96.5621 19.4693 96.7541 19.512 96.9781 19.512ZM96.9781 17.68C96.7915 17.68 96.6608 17.6427 96.5861 17.568C96.5168 17.4933 96.4821 17.4027 96.4821 17.296V17.12C96.4821 17.0133 96.5168 16.9227 96.5861 16.848C96.6608 16.7733 96.7915 16.736 96.9781 16.736C97.1648 16.736 97.2928 16.7733 97.3621 16.848C97.4368 16.9227 97.4741 17.0133 97.4741 17.12V17.296C97.4741 17.4027 97.4368 17.4933 97.3621 17.568C97.2928 17.6427 97.1648 17.68 96.9781 17.68ZM100.055 20V19.416H101.655V14.912H101.599L100.191 16.224L99.799 15.8L101.279 14.416H102.327V19.416H103.799V20H100.055ZM61.68 30V29.416H63.28V24.912H63.224L61.816 26.224L61.424 25.8L62.904 24.416H63.952V29.416H65.424V30H61.68ZM68.1969 30.096C67.8555 30.096 67.5622 30.032 67.3169 29.904C67.0715 29.7707 66.8689 29.5813 66.7089 29.336C66.5489 29.0907 66.4315 28.7893 66.3569 28.432C66.2822 28.0747 66.2449 27.6667 66.2449 27.208C66.2449 26.7547 66.2822 26.3493 66.3569 25.992C66.4315 25.6293 66.5489 25.3253 66.7089 25.08C66.8689 24.8347 67.0715 24.648 67.3169 24.52C67.5622 24.3867 67.8555 24.32 68.1969 24.32C68.5382 24.32 68.8315 24.3867 69.0769 24.52C69.3222 24.648 69.5249 24.8347 69.6849 25.08C69.8449 25.3253 69.9622 25.6293 70.0369 25.992C70.1115 26.3493 70.1489 26.7547 70.1489 27.208C70.1489 27.6667 70.1115 28.0747 70.0369 28.432C69.9622 28.7893 69.8449 29.0907 69.6849 29.336C69.5249 29.5813 69.3222 29.7707 69.0769 29.904C68.8315 30.032 68.5382 30.096 68.1969 30.096ZM68.1969 29.512C68.4209 29.512 68.6129 29.4693 68.7729 29.384C68.9329 29.2933 69.0609 29.168 69.1569 29.008C69.2582 28.848 69.3329 28.656 69.3809 28.432C69.4289 28.2027 69.4529 27.9467 69.4529 27.664V26.752C69.4529 26.4747 69.4289 26.2213 69.3809 25.992C69.3329 25.7627 69.2582 25.568 69.1569 25.408C69.0609 25.248 68.9329 25.1253 68.7729 25.04C68.6129 24.9493 68.4209 24.904 68.1969 24.904C67.9729 24.904 67.7809 24.9493 67.6209 25.04C67.4609 25.1253 67.3302 25.248 67.2289 25.408C67.1329 25.568 67.0609 25.7627 67.0129 25.992C66.9649 26.2213 66.9409 26.4747 66.9409 26.752V27.664C66.9409 27.9467 66.9649 28.2027 67.0129 28.432C67.0609 28.656 67.1329 28.848 67.2289 29.008C67.3302 29.168 67.4609 29.2933 67.6209 29.384C67.7809 29.4693 67.9729 29.512 68.1969 29.512ZM68.1969 27.68C68.0102 27.68 67.8795 27.6427 67.8049 27.568C67.7355 27.4933 67.7009 27.4027 67.7009 27.296V27.12C67.7009 27.0133 67.7355 26.9227 67.8049 26.848C67.8795 26.7733 68.0102 26.736 68.1969 26.736C68.3835 26.736 68.5115 26.7733 68.5809 26.848C68.6555 26.9227 68.6929 27.0133 68.6929 27.12V27.296C68.6929 27.4027 68.6555 27.4933 68.5809 27.568C68.5115 27.6427 68.3835 27.68 68.1969 27.68ZM71.2738 30V29.416H72.8738V24.912H72.8178L71.4098 26.224L71.0178 25.8L72.4978 24.416H73.5458V29.416H75.0178V30H71.2738ZM77.7906 30.096C77.4493 30.096 77.156 30.032 76.9106 29.904C76.6653 29.7707 76.4626 29.5813 76.3026 29.336C76.1426 29.0907 76.0253 28.7893 75.9506 28.432C75.876 28.0747 75.8386 27.6667 75.8386 27.208C75.8386 26.7547 75.876 26.3493 75.9506 25.992C76.0253 25.6293 76.1426 25.3253 76.3026 25.08C76.4626 24.8347 76.6653 24.648 76.9106 24.52C77.156 24.3867 77.4493 24.32 77.7906 24.32C78.132 24.32 78.4253 24.3867 78.6706 24.52C78.916 24.648 79.1186 24.8347 79.2786 25.08C79.4386 25.3253 79.556 25.6293 79.6306 25.992C79.7053 26.3493 79.7426 26.7547 79.7426 27.208C79.7426 27.6667 79.7053 28.0747 79.6306 28.432C79.556 28.7893 79.4386 29.0907 79.2786 29.336C79.1186 29.5813 78.916 29.7707 78.6706 29.904C78.4253 30.032 78.132 30.096 77.7906 30.096ZM77.7906 29.512C78.0146 29.512 78.2066 29.4693 78.3666 29.384C78.5266 29.2933 78.6546 29.168 78.7506 29.008C78.852 28.848 78.9266 28.656 78.9746 28.432C79.0226 28.2027 79.0466 27.9467 79.0466 27.664V26.752C79.0466 26.4747 79.0226 26.2213 78.9746 25.992C78.9266 25.7627 78.852 25.568 78.7506 25.408C78.6546 25.248 78.5266 25.1253 78.3666 25.04C78.2066 24.9493 78.0146 24.904 77.7906 24.904C77.5666 24.904 77.3746 24.9493 77.2146 25.04C77.0546 25.1253 76.924 25.248 76.8226 25.408C76.7266 25.568 76.6546 25.7627 76.6066 25.992C76.5586 26.2213 76.5346 26.4747 76.5346 26.752V27.664C76.5346 27.9467 76.5586 28.2027 76.6066 28.432C76.6546 28.656 76.7266 28.848 76.8226 29.008C76.924 29.168 77.0546 29.2933 77.2146 29.384C77.3746 29.4693 77.5666 29.512 77.7906 29.512ZM77.7906 27.68C77.604 27.68 77.4733 27.6427 77.3986 27.568C77.3293 27.4933 77.2946 27.4027 77.2946 27.296V27.12C77.2946 27.0133 77.3293 26.9227 77.3986 26.848C77.4733 26.7733 77.604 26.736 77.7906 26.736C77.9773 26.736 78.1053 26.7733 78.1746 26.848C78.2493 26.9227 78.2866 27.0133 78.2866 27.12V27.296C78.2866 27.4027 78.2493 27.4933 78.1746 27.568C78.1053 27.6427 77.9773 27.68 77.7906 27.68ZM82.5875 30.096C82.2462 30.096 81.9528 30.032 81.7075 29.904C81.4622 29.7707 81.2595 29.5813 81.0995 29.336C80.9395 29.0907 80.8222 28.7893 80.7475 28.432C80.6728 28.0747 80.6355 27.6667 80.6355 27.208C80.6355 26.7547 80.6728 26.3493 80.7475 25.992C80.8222 25.6293 80.9395 25.3253 81.0995 25.08C81.2595 24.8347 81.4622 24.648 81.7075 24.52C81.9528 24.3867 82.2462 24.32 82.5875 24.32C82.9288 24.32 83.2222 24.3867 83.4675 24.52C83.7128 24.648 83.9155 24.8347 84.0755 25.08C84.2355 25.3253 84.3528 25.6293 84.4275 25.992C84.5022 26.3493 84.5395 26.7547 84.5395 27.208C84.5395 27.6667 84.5022 28.0747 84.4275 28.432C84.3528 28.7893 84.2355 29.0907 84.0755 29.336C83.9155 29.5813 83.7128 29.7707 83.4675 29.904C83.2222 30.032 82.9288 30.096 82.5875 30.096ZM82.5875 29.512C82.8115 29.512 83.0035 29.4693 83.1635 29.384C83.3235 29.2933 83.4515 29.168 83.5475 29.008C83.6488 28.848 83.7235 28.656 83.7715 28.432C83.8195 28.2027 83.8435 27.9467 83.8435 27.664V26.752C83.8435 26.4747 83.8195 26.2213 83.7715 25.992C83.7235 25.7627 83.6488 25.568 83.5475 25.408C83.4515 25.248 83.3235 25.1253 83.1635 25.04C83.0035 24.9493 82.8115 24.904 82.5875 24.904C82.3635 24.904 82.1715 24.9493 82.0115 25.04C81.8515 25.1253 81.7208 25.248 81.6195 25.408C81.5235 25.568 81.4515 25.7627 81.4035 25.992C81.3555 26.2213 81.3315 26.4747 81.3315 26.752V27.664C81.3315 27.9467 81.3555 28.2027 81.4035 28.432C81.4515 28.656 81.5235 28.848 81.6195 29.008C81.7208 29.168 81.8515 29.2933 82.0115 29.384C82.1715 29.4693 82.3635 29.512 82.5875 29.512ZM82.5875 27.68C82.4008 27.68 82.2702 27.6427 82.1955 27.568C82.1262 27.4933 82.0915 27.4027 82.0915 27.296V27.12C82.0915 27.0133 82.1262 26.9227 82.1955 26.848C82.2702 26.7733 82.4008 26.736 82.5875 26.736C82.7742 26.736 82.9022 26.7733 82.9715 26.848C83.0462 26.9227 83.0835 27.0133 83.0835 27.12V27.296C83.0835 27.4027 83.0462 27.4933 82.9715 27.568C82.9022 27.6427 82.7742 27.68 82.5875 27.68ZM85.6644 30V29.416H87.2644V24.912H87.2084L85.8004 26.224L85.4084 25.8L86.8884 24.416H87.9364V29.416H89.4084V30H85.6644ZM92.1813 30.096C91.8399 30.096 91.5466 30.032 91.3013 29.904C91.0559 29.7707 90.8533 29.5813 90.6933 29.336C90.5333 29.0907 90.4159 28.7893 90.3413 28.432C90.2666 28.0747 90.2293 27.6667 90.2293 27.208C90.2293 26.7547 90.2666 26.3493 90.3413 25.992C90.4159 25.6293 90.5333 25.3253 90.6933 25.08C90.8533 24.8347 91.0559 24.648 91.3013 24.52C91.5466 24.3867 91.8399 24.32 92.1813 24.32C92.5226 24.32 92.8159 24.3867 93.0613 24.52C93.3066 24.648 93.5093 24.8347 93.6693 25.08C93.8293 25.3253 93.9466 25.6293 94.0213 25.992C94.0959 26.3493 94.1333 26.7547 94.1333 27.208C94.1333 27.6667 94.0959 28.0747 94.0213 28.432C93.9466 28.7893 93.8293 29.0907 93.6693 29.336C93.5093 29.5813 93.3066 29.7707 93.0613 29.904C92.8159 30.032 92.5226 30.096 92.1813 30.096ZM92.1813 29.512C92.4053 29.512 92.5973 29.4693 92.7573 29.384C92.9173 29.2933 93.0453 29.168 93.1413 29.008C93.2426 28.848 93.3173 28.656 93.3653 28.432C93.4133 28.2027 93.4373 27.9467 93.4373 27.664V26.752C93.4373 26.4747 93.4133 26.2213 93.3653 25.992C93.3173 25.7627 93.2426 25.568 93.1413 25.408C93.0453 25.248 92.9173 25.1253 92.7573 25.04C92.5973 24.9493 92.4053 24.904 92.1813 24.904C91.9573 24.904 91.7653 24.9493 91.6053 25.04C91.4453 25.1253 91.3146 25.248 91.2133 25.408C91.1173 25.568 91.0453 25.7627 90.9973 25.992C90.9493 26.2213 90.9253 26.4747 90.9253 26.752V27.664C90.9253 27.9467 90.9493 28.2027 90.9973 28.432C91.0453 28.656 91.1173 28.848 91.2133 29.008C91.3146 29.168 91.4453 29.2933 91.6053 29.384C91.7653 29.4693 91.9573 29.512 92.1813 29.512ZM92.1813 27.68C91.9946 27.68 91.8639 27.6427 91.7893 27.568C91.7199 27.4933 91.6853 27.4027 91.6853 27.296V27.12C91.6853 27.0133 91.7199 26.9227 91.7893 26.848C91.8639 26.7733 91.9946 26.736 92.1813 26.736C92.3679 26.736 92.4959 26.7733 92.5653 26.848C92.6399 26.9227 92.6773 27.0133 92.6773 27.12V27.296C92.6773 27.4027 92.6399 27.4933 92.5653 27.568C92.4959 27.6427 92.3679 27.68 92.1813 27.68ZM96.9781 30.096C96.6368 30.096 96.3435 30.032 96.0981 29.904C95.8528 29.7707 95.6501 29.5813 95.4901 29.336C95.3301 29.0907 95.2128 28.7893 95.1381 28.432C95.0635 28.0747 95.0261 27.6667 95.0261 27.208C95.0261 26.7547 95.0635 26.3493 95.1381 25.992C95.2128 25.6293 95.3301 25.3253 95.4901 25.08C95.6501 24.8347 95.8528 24.648 96.0981 24.52C96.3435 24.3867 96.6368 24.32 96.9781 24.32C97.3195 24.32 97.6128 24.3867 97.8581 24.52C98.1035 24.648 98.3061 24.8347 98.4661 25.08C98.6261 25.3253 98.7435 25.6293 98.8181 25.992C98.8928 26.3493 98.9301 26.7547 98.9301 27.208C98.9301 27.6667 98.8928 28.0747 98.8181 28.432C98.7435 28.7893 98.6261 29.0907 98.4661 29.336C98.3061 29.5813 98.1035 29.7707 97.8581 29.904C97.6128 30.032 97.3195 30.096 96.9781 30.096ZM96.9781 29.512C97.2021 29.512 97.3941 29.4693 97.5541 29.384C97.7141 29.2933 97.8421 29.168 97.9381 29.008C98.0395 28.848 98.1141 28.656 98.1621 28.432C98.2101 28.2027 98.2341 27.9467 98.2341 27.664V26.752C98.2341 26.4747 98.2101 26.2213 98.1621 25.992C98.1141 25.7627 98.0395 25.568 97.9381 25.408C97.8421 25.248 97.7141 25.1253 97.5541 25.04C97.3941 24.9493 97.2021 24.904 96.9781 24.904C96.7541 24.904 96.5621 24.9493 96.4021 25.04C96.2421 25.1253 96.1115 25.248 96.0101 25.408C95.9141 25.568 95.8421 25.7627 95.7941 25.992C95.7461 26.2213 95.7221 26.4747 95.7221 26.752V27.664C95.7221 27.9467 95.7461 28.2027 95.7941 28.432C95.8421 28.656 95.9141 28.848 96.0101 29.008C96.1115 29.168 96.2421 29.2933 96.4021 29.384C96.5621 29.4693 96.7541 29.512 96.9781 29.512ZM96.9781 27.68C96.7915 27.68 96.6608 27.6427 96.5861 27.568C96.5168 27.4933 96.4821 27.4027 96.4821 27.296V27.12C96.4821 27.0133 96.5168 26.9227 96.5861 26.848C96.6608 26.7733 96.7915 26.736 96.9781 26.736C97.1648 26.736 97.2928 26.7733 97.3621 26.848C97.4368 26.9227 97.4741 27.0133 97.4741 27.12V27.296C97.4741 27.4027 97.4368 27.4933 97.3621 27.568C97.2928 27.6427 97.1648 27.68 96.9781 27.68ZM101.775 30.096C101.434 30.096 101.14 30.032 100.895 29.904C100.65 29.7707 100.447 29.5813 100.287 29.336C100.127 29.0907 100.01 28.7893 99.935 28.432C99.8603 28.0747 99.823 27.6667 99.823 27.208C99.823 26.7547 99.8603 26.3493 99.935 25.992C100.01 25.6293 100.127 25.3253 100.287 25.08C100.447 24.8347 100.65 24.648 100.895 24.52C101.14 24.3867 101.434 24.32 101.775 24.32C102.116 24.32 102.41 24.3867 102.655 24.52C102.9 24.648 103.103 24.8347 103.263 25.08C103.423 25.3253 103.54 25.6293 103.615 25.992C103.69 26.3493 103.727 26.7547 103.727 27.208C103.727 27.6667 103.69 28.0747 103.615 28.432C103.54 28.7893 103.423 29.0907 103.263 29.336C103.103 29.5813 102.9 29.7707 102.655 29.904C102.41 30.032 102.116 30.096 101.775 30.096ZM101.775 29.512C101.999 29.512 102.191 29.4693 102.351 29.384C102.511 29.2933 102.639 29.168 102.735 29.008C102.836 28.848 102.911 28.656 102.959 28.432C103.007 28.2027 103.031 27.9467 103.031 27.664V26.752C103.031 26.4747 103.007 26.2213 102.959 25.992C102.911 25.7627 102.836 25.568 102.735 25.408C102.639 25.248 102.511 25.1253 102.351 25.04C102.191 24.9493 101.999 24.904 101.775 24.904C101.551 24.904 101.359 24.9493 101.199 25.04C101.039 25.1253 100.908 25.248 100.807 25.408C100.711 25.568 100.639 25.7627 100.591 25.992C100.543 26.2213 100.519 26.4747 100.519 26.752V27.664C100.519 27.9467 100.543 28.2027 100.591 28.432C100.639 28.656 100.711 28.848 100.807 29.008C100.908 29.168 101.039 29.2933 101.199 29.384C101.359 29.4693 101.551 29.512 101.775 29.512ZM101.775 27.68C101.588 27.68 101.458 27.6427 101.383 27.568C101.314 27.4933 101.279 27.4027 101.279 27.296V27.12C101.279 27.0133 101.314 26.9227 101.383 26.848C101.458 26.7733 101.588 26.736 101.775 26.736C101.962 26.736 102.09 26.7733 102.159 26.848C102.234 26.9227 102.271 27.0133 102.271 27.12V27.296C102.271 27.4027 102.234 27.4933 102.159 27.568C102.09 27.6427 101.962 27.68 101.775 27.68ZM104.852 30V29.416H106.452V24.912H106.396L104.988 26.224L104.596 25.8L106.076 24.416H107.124V29.416H108.596V30H104.852ZM111.369 30.096C111.027 30.096 110.734 30.032 110.489 29.904C110.243 29.7707 110.041 29.5813 109.881 29.336C109.721 29.0907 109.603 28.7893 109.529 28.432C109.454 28.0747 109.417 27.6667 109.417 27.208C109.417 26.7547 109.454 26.3493 109.529 25.992C109.603 25.6293 109.721 25.3253 109.881 25.08C110.041 24.8347 110.243 24.648 110.489 24.52C110.734 24.3867 111.027 24.32 111.369 24.32C111.71 24.32 112.003 24.3867 112.249 24.52C112.494 24.648 112.697 24.8347 112.857 25.08C113.017 25.3253 113.134 25.6293 113.209 25.992C113.283 26.3493 113.321 26.7547 113.321 27.208C113.321 27.6667 113.283 28.0747 113.209 28.432C113.134 28.7893 113.017 29.0907 112.857 29.336C112.697 29.5813 112.494 29.7707 112.249 29.904C112.003 30.032 111.71 30.096 111.369 30.096ZM111.369 29.512C111.593 29.512 111.785 29.4693 111.945 29.384C112.105 29.2933 112.233 29.168 112.329 29.008C112.43 28.848 112.505 28.656 112.553 28.432C112.601 28.2027 112.625 27.9467 112.625 27.664V26.752C112.625 26.4747 112.601 26.2213 112.553 25.992C112.505 25.7627 112.43 25.568 112.329 25.408C112.233 25.248 112.105 25.1253 111.945 25.04C111.785 24.9493 111.593 24.904 111.369 24.904C111.145 24.904 110.953 24.9493 110.793 25.04C110.633 25.1253 110.502 25.248 110.401 25.408C110.305 25.568 110.233 25.7627 110.185 25.992C110.137 26.2213 110.113 26.4747 110.113 26.752V27.664C110.113 27.9467 110.137 28.2027 110.185 28.432C110.233 28.656 110.305 28.848 110.401 29.008C110.502 29.168 110.633 29.2933 110.793 29.384C110.953 29.4693 111.145 29.512 111.369 29.512ZM111.369 27.68C111.182 27.68 111.051 27.6427 110.977 27.568C110.907 27.4933 110.873 27.4027 110.873 27.296V27.12C110.873 27.0133 110.907 26.9227 110.977 26.848C111.051 26.7733 111.182 26.736 111.369 26.736C111.555 26.736 111.683 26.7733 111.753 26.848C111.827 26.9227 111.865 27.0133 111.865 27.12V27.296C111.865 27.4027 111.827 27.4933 111.753 27.568C111.683 27.6427 111.555 27.68 111.369 27.68ZM61.68 40V39.416H63.28V34.912H63.224L61.816 36.224L61.424 35.8L62.904 34.416H63.952V39.416H65.424V40H61.68ZM68.1969 40.096C67.8555 40.096 67.5622 40.032 67.3169 39.904C67.0715 39.7707 66.8689 39.5813 66.7089 39.336C66.5489 39.0907 66.4315 38.7893 66.3569 38.432C66.2822 38.0747 66.2449 37.6667 66.2449 37.208C66.2449 36.7547 66.2822 36.3493 66.3569 35.992C66.4315 35.6293 66.5489 35.3253 66.7089 35.08C66.8689 34.8347 67.0715 34.648 67.3169 34.52C67.5622 34.3867 67.8555 34.32 68.1969 34.32C68.5382 34.32 68.8315 34.3867 69.0769 34.52C69.3222 34.648 69.5249 34.8347 69.6849 35.08C69.8449 35.3253 69.9622 35.6293 70.0369 35.992C70.1115 36.3493 70.1489 36.7547 70.1489 37.208C70.1489 37.6667 70.1115 38.0747 70.0369 38.432C69.9622 38.7893 69.8449 39.0907 69.6849 39.336C69.5249 39.5813 69.3222 39.7707 69.0769 39.904C68.8315 40.032 68.5382 40.096 68.1969 40.096ZM68.1969 39.512C68.4209 39.512 68.6129 39.4693 68.7729 39.384C68.9329 39.2933 69.0609 39.168 69.1569 39.008C69.2582 38.848 69.3329 38.656 69.3809 38.432C69.4289 38.2027 69.4529 37.9467 69.4529 37.664V36.752C69.4529 36.4747 69.4289 36.2213 69.3809 35.992C69.3329 35.7627 69.2582 35.568 69.1569 35.408C69.0609 35.248 68.9329 35.1253 68.7729 35.04C68.6129 34.9493 68.4209 34.904 68.1969 34.904C67.9729 34.904 67.7809 34.9493 67.6209 35.04C67.4609 35.1253 67.3302 35.248 67.2289 35.408C67.1329 35.568 67.0609 35.7627 67.0129 35.992C66.9649 36.2213 66.9409 36.4747 66.9409 36.752V37.664C66.9409 37.9467 66.9649 38.2027 67.0129 38.432C67.0609 38.656 67.1329 38.848 67.2289 39.008C67.3302 39.168 67.4609 39.2933 67.6209 39.384C67.7809 39.4693 67.9729 39.512 68.1969 39.512ZM68.1969 37.68C68.0102 37.68 67.8795 37.6427 67.8049 37.568C67.7355 37.4933 67.7009 37.4027 67.7009 37.296V37.12C67.7009 37.0133 67.7355 36.9227 67.8049 36.848C67.8795 36.7733 68.0102 36.736 68.1969 36.736C68.3835 36.736 68.5115 36.7733 68.5809 36.848C68.6555 36.9227 68.6929 37.0133 68.6929 37.12V37.296C68.6929 37.4027 68.6555 37.4933 68.5809 37.568C68.5115 37.6427 68.3835 37.68 68.1969 37.68ZM71.2738 40V39.416H72.8738V34.912H72.8178L71.4098 36.224L71.0178 35.8L72.4978 34.416H73.5458V39.416H75.0178V40H71.2738ZM77.7906 40.096C77.4493 40.096 77.156 40.032 76.9106 39.904C76.6653 39.7707 76.4626 39.5813 76.3026 39.336C76.1426 39.0907 76.0253 38.7893 75.9506 38.432C75.876 38.0747 75.8386 37.6667 75.8386 37.208C75.8386 36.7547 75.876 36.3493 75.9506 35.992C76.0253 35.6293 76.1426 35.3253 76.3026 35.08C76.4626 34.8347 76.6653 34.648 76.9106 34.52C77.156 34.3867 77.4493 34.32 77.7906 34.32C78.132 34.32 78.4253 34.3867 78.6706 34.52C78.916 34.648 79.1186 34.8347 79.2786 35.08C79.4386 35.3253 79.556 35.6293 79.6306 35.992C79.7053 36.3493 79.7426 36.7547 79.7426 37.208C79.7426 37.6667 79.7053 38.0747 79.6306 38.432C79.556 38.7893 79.4386 39.0907 79.2786 39.336C79.1186 39.5813 78.916 39.7707 78.6706 39.904C78.4253 40.032 78.132 40.096 77.7906 40.096ZM77.7906 39.512C78.0146 39.512 78.2066 39.4693 78.3666 39.384C78.5266 39.2933 78.6546 39.168 78.7506 39.008C78.852 38.848 78.9266 38.656 78.9746 38.432C79.0226 38.2027 79.0466 37.9467 79.0466 37.664V36.752C79.0466 36.4747 79.0226 36.2213 78.9746 35.992C78.9266 35.7627 78.852 35.568 78.7506 35.408C78.6546 35.248 78.5266 35.1253 78.3666 35.04C78.2066 34.9493 78.0146 34.904 77.7906 34.904C77.5666 34.904 77.3746 34.9493 77.2146 35.04C77.0546 35.1253 76.924 35.248 76.8226 35.408C76.7266 35.568 76.6546 35.7627 76.6066 35.992C76.5586 36.2213 76.5346 36.4747 76.5346 36.752V37.664C76.5346 37.9467 76.5586 38.2027 76.6066 38.432C76.6546 38.656 76.7266 38.848 76.8226 39.008C76.924 39.168 77.0546 39.2933 77.2146 39.384C77.3746 39.4693 77.5666 39.512 77.7906 39.512ZM77.7906 37.68C77.604 37.68 77.4733 37.6427 77.3986 37.568C77.3293 37.4933 77.2946 37.4027 77.2946 37.296V37.12C77.2946 37.0133 77.3293 36.9227 77.3986 36.848C77.4733 36.7733 77.604 36.736 77.7906 36.736C77.9773 36.736 78.1053 36.7733 78.1746 36.848C78.2493 36.9227 78.2866 37.0133 78.2866 37.12V37.296C78.2866 37.4027 78.2493 37.4933 78.1746 37.568C78.1053 37.6427 77.9773 37.68 77.7906 37.68ZM80.8675 40V39.416H82.4675V34.912H82.4115L81.0035 36.224L80.6115 35.8L82.0915 34.416H83.1395V39.416H84.6115V40H80.8675ZM87.3844 40.096C87.043 40.096 86.7497 40.032 86.5044 39.904C86.259 39.7707 86.0564 39.5813 85.8964 39.336C85.7364 39.0907 85.619 38.7893 85.5444 38.432C85.4697 38.0747 85.4324 37.6667 85.4324 37.208C85.4324 36.7547 85.4697 36.3493 85.5444 35.992C85.619 35.6293 85.7364 35.3253 85.8964 35.08C86.0564 34.8347 86.259 34.648 86.5044 34.52C86.7497 34.3867 87.043 34.32 87.3844 34.32C87.7257 34.32 88.019 34.3867 88.2644 34.52C88.5097 34.648 88.7124 34.8347 88.8724 35.08C89.0324 35.3253 89.1497 35.6293 89.2244 35.992C89.299 36.3493 89.3364 36.7547 89.3364 37.208C89.3364 37.6667 89.299 38.0747 89.2244 38.432C89.1497 38.7893 89.0324 39.0907 88.8724 39.336C88.7124 39.5813 88.5097 39.7707 88.2644 39.904C88.019 40.032 87.7257 40.096 87.3844 40.096ZM87.3844 39.512C87.6084 39.512 87.8004 39.4693 87.9604 39.384C88.1204 39.2933 88.2484 39.168 88.3444 39.008C88.4457 38.848 88.5204 38.656 88.5684 38.432C88.6164 38.2027 88.6404 37.9467 88.6404 37.664V36.752C88.6404 36.4747 88.6164 36.2213 88.5684 35.992C88.5204 35.7627 88.4457 35.568 88.3444 35.408C88.2484 35.248 88.1204 35.1253 87.9604 35.04C87.8004 34.9493 87.6084 34.904 87.3844 34.904C87.1604 34.904 86.9684 34.9493 86.8084 35.04C86.6484 35.1253 86.5177 35.248 86.4164 35.408C86.3204 35.568 86.2484 35.7627 86.2004 35.992C86.1524 36.2213 86.1284 36.4747 86.1284 36.752V37.664C86.1284 37.9467 86.1524 38.2027 86.2004 38.432C86.2484 38.656 86.3204 38.848 86.4164 39.008C86.5177 39.168 86.6484 39.2933 86.8084 39.384C86.9684 39.4693 87.1604 39.512 87.3844 39.512ZM87.3844 37.68C87.1977 37.68 87.067 37.6427 86.9924 37.568C86.923 37.4933 86.8884 37.4027 86.8884 37.296V37.12C86.8884 37.0133 86.923 36.9227 86.9924 36.848C87.067 36.7733 87.1977 36.736 87.3844 36.736C87.571 36.736 87.699 36.7733 87.7684 36.848C87.843 36.9227 87.8804 37.0133 87.8804 37.12V37.296C87.8804 37.4027 87.843 37.4933 87.7684 37.568C87.699 37.6427 87.571 37.68 87.3844 37.68ZM92.1813 40.096C91.8399 40.096 91.5466 40.032 91.3013 39.904C91.0559 39.7707 90.8533 39.5813 90.6933 39.336C90.5333 39.0907 90.4159 38.7893 90.3413 38.432C90.2666 38.0747 90.2293 37.6667 90.2293 37.208C90.2293 36.7547 90.2666 36.3493 90.3413 35.992C90.4159 35.6293 90.5333 35.3253 90.6933 35.08C90.8533 34.8347 91.0559 34.648 91.3013 34.52C91.5466 34.3867 91.8399 34.32 92.1813 34.32C92.5226 34.32 92.8159 34.3867 93.0613 34.52C93.3066 34.648 93.5093 34.8347 93.6693 35.08C93.8293 35.3253 93.9466 35.6293 94.0213 35.992C94.0959 36.3493 94.1333 36.7547 94.1333 37.208C94.1333 37.6667 94.0959 38.0747 94.0213 38.432C93.9466 38.7893 93.8293 39.0907 93.6693 39.336C93.5093 39.5813 93.3066 39.7707 93.0613 39.904C92.8159 40.032 92.5226 40.096 92.1813 40.096ZM92.1813 39.512C92.4053 39.512 92.5973 39.4693 92.7573 39.384C92.9173 39.2933 93.0453 39.168 93.1413 39.008C93.2426 38.848 93.3173 38.656 93.3653 38.432C93.4133 38.2027 93.4373 37.9467 93.4373 37.664V36.752C93.4373 36.4747 93.4133 36.2213 93.3653 35.992C93.3173 35.7627 93.2426 35.568 93.1413 35.408C93.0453 35.248 92.9173 35.1253 92.7573 35.04C92.5973 34.9493 92.4053 34.904 92.1813 34.904C91.9573 34.904 91.7653 34.9493 91.6053 35.04C91.4453 35.1253 91.3146 35.248 91.2133 35.408C91.1173 35.568 91.0453 35.7627 90.9973 35.992C90.9493 36.2213 90.9253 36.4747 90.9253 36.752V37.664C90.9253 37.9467 90.9493 38.2027 90.9973 38.432C91.0453 38.656 91.1173 38.848 91.2133 39.008C91.3146 39.168 91.4453 39.2933 91.6053 39.384C91.7653 39.4693 91.9573 39.512 92.1813 39.512ZM92.1813 37.68C91.9946 37.68 91.8639 37.6427 91.7893 37.568C91.7199 37.4933 91.6853 37.4027 91.6853 37.296V37.12C91.6853 37.0133 91.7199 36.9227 91.7893 36.848C91.8639 36.7733 91.9946 36.736 92.1813 36.736C92.3679 36.736 92.4959 36.7733 92.5653 36.848C92.6399 36.9227 92.6773 37.0133 92.6773 37.12V37.296C92.6773 37.4027 92.6399 37.4933 92.5653 37.568C92.4959 37.6427 92.3679 37.68 92.1813 37.68ZM96.9781 40.096C96.6368 40.096 96.3435 40.032 96.0981 39.904C95.8528 39.7707 95.6501 39.5813 95.4901 39.336C95.3301 39.0907 95.2128 38.7893 95.1381 38.432C95.0635 38.0747 95.0261 37.6667 95.0261 37.208C95.0261 36.7547 95.0635 36.3493 95.1381 35.992C95.2128 35.6293 95.3301 35.3253 95.4901 35.08C95.6501 34.8347 95.8528 34.648 96.0981 34.52C96.3435 34.3867 96.6368 34.32 96.9781 34.32C97.3195 34.32 97.6128 34.3867 97.8581 34.52C98.1035 34.648 98.3061 34.8347 98.4661 35.08C98.6261 35.3253 98.7435 35.6293 98.8181 35.992C98.8928 36.3493 98.9301 36.7547 98.9301 37.208C98.9301 37.6667 98.8928 38.0747 98.8181 38.432C98.7435 38.7893 98.6261 39.0907 98.4661 39.336C98.3061 39.5813 98.1035 39.7707 97.8581 39.904C97.6128 40.032 97.3195 40.096 96.9781 40.096ZM96.9781 39.512C97.2021 39.512 97.3941 39.4693 97.5541 39.384C97.7141 39.2933 97.8421 39.168 97.9381 39.008C98.0395 38.848 98.1141 38.656 98.1621 38.432C98.2101 38.2027 98.2341 37.9467 98.2341 37.664V36.752C98.2341 36.4747 98.2101 36.2213 98.1621 35.992C98.1141 35.7627 98.0395 35.568 97.9381 35.408C97.8421 35.248 97.7141 35.1253 97.5541 35.04C97.3941 34.9493 97.2021 34.904 96.9781 34.904C96.7541 34.904 96.5621 34.9493 96.4021 35.04C96.2421 35.1253 96.1115 35.248 96.0101 35.408C95.9141 35.568 95.8421 35.7627 95.7941 35.992C95.7461 36.2213 95.7221 36.4747 95.7221 36.752V37.664C95.7221 37.9467 95.7461 38.2027 95.7941 38.432C95.8421 38.656 95.9141 38.848 96.0101 39.008C96.1115 39.168 96.2421 39.2933 96.4021 39.384C96.5621 39.4693 96.7541 39.512 96.9781 39.512ZM96.9781 37.68C96.7915 37.68 96.6608 37.6427 96.5861 37.568C96.5168 37.4933 96.4821 37.4027 96.4821 37.296V37.12C96.4821 37.0133 96.5168 36.9227 96.5861 36.848C96.6608 36.7733 96.7915 36.736 96.9781 36.736C97.1648 36.736 97.2928 36.7733 97.3621 36.848C97.4368 36.9227 97.4741 37.0133 97.4741 37.12V37.296C97.4741 37.4027 97.4368 37.4933 97.3621 37.568C97.2928 37.6427 97.1648 37.68 96.9781 37.68ZM100.055 40V39.416H101.655V34.912H101.599L100.191 36.224L99.799 35.8L101.279 34.416H102.327V39.416H103.799V40H100.055ZM106.572 40.096C106.231 40.096 105.937 40.032 105.692 39.904C105.447 39.7707 105.244 39.5813 105.084 39.336C104.924 39.0907 104.807 38.7893 104.732 38.432C104.657 38.0747 104.62 37.6667 104.62 37.208C104.62 36.7547 104.657 36.3493 104.732 35.992C104.807 35.6293 104.924 35.3253 105.084 35.08C105.244 34.8347 105.447 34.648 105.692 34.52C105.937 34.3867 106.231 34.32 106.572 34.32C106.913 34.32 107.207 34.3867 107.452 34.52C107.697 34.648 107.9 34.8347 108.06 35.08C108.22 35.3253 108.337 35.6293 108.412 35.992C108.487 36.3493 108.524 36.7547 108.524 37.208C108.524 37.6667 108.487 38.0747 108.412 38.432C108.337 38.7893 108.22 39.0907 108.06 39.336C107.9 39.5813 107.697 39.7707 107.452 39.904C107.207 40.032 106.913 40.096 106.572 40.096ZM106.572 39.512C106.796 39.512 106.988 39.4693 107.148 39.384C107.308 39.2933 107.436 39.168 107.532 39.008C107.633 38.848 107.708 38.656 107.756 38.432C107.804 38.2027 107.828 37.9467 107.828 37.664V36.752C107.828 36.4747 107.804 36.2213 107.756 35.992C107.708 35.7627 107.633 35.568 107.532 35.408C107.436 35.248 107.308 35.1253 107.148 35.04C106.988 34.9493 106.796 34.904 106.572 34.904C106.348 34.904 106.156 34.9493 105.996 35.04C105.836 35.1253 105.705 35.248 105.604 35.408C105.508 35.568 105.436 35.7627 105.388 35.992C105.34 36.2213 105.316 36.4747 105.316 36.752V37.664C105.316 37.9467 105.34 38.2027 105.388 38.432C105.436 38.656 105.508 38.848 105.604 39.008C105.705 39.168 105.836 39.2933 105.996 39.384C106.156 39.4693 106.348 39.512 106.572 39.512ZM106.572 37.68C106.385 37.68 106.255 37.6427 106.18 37.568C106.111 37.4933 106.076 37.4027 106.076 37.296V37.12C106.076 37.0133 106.111 36.9227 106.18 36.848C106.255 36.7733 106.385 36.736 106.572 36.736C106.759 36.736 106.887 36.7733 106.956 36.848C107.031 36.9227 107.068 37.0133 107.068 37.12V37.296C107.068 37.4027 107.031 37.4933 106.956 37.568C106.887 37.6427 106.759 37.68 106.572 37.68ZM61.68 50V49.416H63.28V44.912H63.224L61.816 46.224L61.424 45.8L62.904 44.416H63.952V49.416H65.424V50H61.68ZM68.1969 50.096C67.8555 50.096 67.5622 50.032 67.3169 49.904C67.0715 49.7707 66.8689 49.5813 66.7089 49.336C66.5489 49.0907 66.4315 48.7893 66.3569 48.432C66.2822 48.0747 66.2449 47.6667 66.2449 47.208C66.2449 46.7547 66.2822 46.3493 66.3569 45.992C66.4315 45.6293 66.5489 45.3253 66.7089 45.08C66.8689 44.8347 67.0715 44.648 67.3169 44.52C67.5622 44.3867 67.8555 44.32 68.1969 44.32C68.5382 44.32 68.8315 44.3867 69.0769 44.52C69.3222 44.648 69.5249 44.8347 69.6849 45.08C69.8449 45.3253 69.9622 45.6293 70.0369 45.992C70.1115 46.3493 70.1489 46.7547 70.1489 47.208C70.1489 47.6667 70.1115 48.0747 70.0369 48.432C69.9622 48.7893 69.8449 49.0907 69.6849 49.336C69.5249 49.5813 69.3222 49.7707 69.0769 49.904C68.8315 50.032 68.5382 50.096 68.1969 50.096ZM68.1969 49.512C68.4209 49.512 68.6129 49.4693 68.7729 49.384C68.9329 49.2933 69.0609 49.168 69.1569 49.008C69.2582 48.848 69.3329 48.656 69.3809 48.432C69.4289 48.2027 69.4529 47.9467 69.4529 47.664V46.752C69.4529 46.4747 69.4289 46.2213 69.3809 45.992C69.3329 45.7627 69.2582 45.568 69.1569 45.408C69.0609 45.248 68.9329 45.1253 68.7729 45.04C68.6129 44.9493 68.4209 44.904 68.1969 44.904C67.9729 44.904 67.7809 44.9493 67.6209 45.04C67.4609 45.1253 67.3302 45.248 67.2289 45.408C67.1329 45.568 67.0609 45.7627 67.0129 45.992C66.9649 46.2213 66.9409 46.4747 66.9409 46.752V47.664C66.9409 47.9467 66.9649 48.2027 67.0129 48.432C67.0609 48.656 67.1329 48.848 67.2289 49.008C67.3302 49.168 67.4609 49.2933 67.6209 49.384C67.7809 49.4693 67.9729 49.512 68.1969 49.512ZM68.1969 47.68C68.0102 47.68 67.8795 47.6427 67.8049 47.568C67.7355 47.4933 67.7009 47.4027 67.7009 47.296V47.12C67.7009 47.0133 67.7355 46.9227 67.8049 46.848C67.8795 46.7733 68.0102 46.736 68.1969 46.736C68.3835 46.736 68.5115 46.7733 68.5809 46.848C68.6555 46.9227 68.6929 47.0133 68.6929 47.12V47.296C68.6929 47.4027 68.6555 47.4933 68.5809 47.568C68.5115 47.6427 68.3835 47.68 68.1969 47.68ZM71.2738 50V49.416H72.8738V44.912H72.8178L71.4098 46.224L71.0178 45.8L72.4978 44.416H73.5458V49.416H75.0178V50H71.2738ZM77.7906 50.096C77.4493 50.096 77.156 50.032 76.9106 49.904C76.6653 49.7707 76.4626 49.5813 76.3026 49.336C76.1426 49.0907 76.0253 48.7893 75.9506 48.432C75.876 48.0747 75.8386 47.6667 75.8386 47.208C75.8386 46.7547 75.876 46.3493 75.9506 45.992C76.0253 45.6293 76.1426 45.3253 76.3026 45.08C76.4626 44.8347 76.6653 44.648 76.9106 44.52C77.156 44.3867 77.4493 44.32 77.7906 44.32C78.132 44.32 78.4253 44.3867 78.6706 44.52C78.916 44.648 79.1186 44.8347 79.2786 45.08C79.4386 45.3253 79.556 45.6293 79.6306 45.992C79.7053 46.3493 79.7426 46.7547 79.7426 47.208C79.7426 47.6667 79.7053 48.0747 79.6306 48.432C79.556 48.7893 79.4386 49.0907 79.2786 49.336C79.1186 49.5813 78.916 49.7707 78.6706 49.904C78.4253 50.032 78.132 50.096 77.7906 50.096ZM77.7906 49.512C78.0146 49.512 78.2066 49.4693 78.3666 49.384C78.5266 49.2933 78.6546 49.168 78.7506 49.008C78.852 48.848 78.9266 48.656 78.9746 48.432C79.0226 48.2027 79.0466 47.9467 79.0466 47.664V46.752C79.0466 46.4747 79.0226 46.2213 78.9746 45.992C78.9266 45.7627 78.852 45.568 78.7506 45.408C78.6546 45.248 78.5266 45.1253 78.3666 45.04C78.2066 44.9493 78.0146 44.904 77.7906 44.904C77.5666 44.904 77.3746 44.9493 77.2146 45.04C77.0546 45.1253 76.924 45.248 76.8226 45.408C76.7266 45.568 76.6546 45.7627 76.6066 45.992C76.5586 46.2213 76.5346 46.4747 76.5346 46.752V47.664C76.5346 47.9467 76.5586 48.2027 76.6066 48.432C76.6546 48.656 76.7266 48.848 76.8226 49.008C76.924 49.168 77.0546 49.2933 77.2146 49.384C77.3746 49.4693 77.5666 49.512 77.7906 49.512ZM77.7906 47.68C77.604 47.68 77.4733 47.6427 77.3986 47.568C77.3293 47.4933 77.2946 47.4027 77.2946 47.296V47.12C77.2946 47.0133 77.3293 46.9227 77.3986 46.848C77.4733 46.7733 77.604 46.736 77.7906 46.736C77.9773 46.736 78.1053 46.7733 78.1746 46.848C78.2493 46.9227 78.2866 47.0133 78.2866 47.12V47.296C78.2866 47.4027 78.2493 47.4933 78.1746 47.568C78.1053 47.6427 77.9773 47.68 77.7906 47.68ZM82.5875 50.096C82.2462 50.096 81.9528 50.032 81.7075 49.904C81.4622 49.7707 81.2595 49.5813 81.0995 49.336C80.9395 49.0907 80.8222 48.7893 80.7475 48.432C80.6728 48.0747 80.6355 47.6667 80.6355 47.208C80.6355 46.7547 80.6728 46.3493 80.7475 45.992C80.8222 45.6293 80.9395 45.3253 81.0995 45.08C81.2595 44.8347 81.4622 44.648 81.7075 44.52C81.9528 44.3867 82.2462 44.32 82.5875 44.32C82.9288 44.32 83.2222 44.3867 83.4675 44.52C83.7128 44.648 83.9155 44.8347 84.0755 45.08C84.2355 45.3253 84.3528 45.6293 84.4275 45.992C84.5022 46.3493 84.5395 46.7547 84.5395 47.208C84.5395 47.6667 84.5022 48.0747 84.4275 48.432C84.3528 48.7893 84.2355 49.0907 84.0755 49.336C83.9155 49.5813 83.7128 49.7707 83.4675 49.904C83.2222 50.032 82.9288 50.096 82.5875 50.096ZM82.5875 49.512C82.8115 49.512 83.0035 49.4693 83.1635 49.384C83.3235 49.2933 83.4515 49.168 83.5475 49.008C83.6488 48.848 83.7235 48.656 83.7715 48.432C83.8195 48.2027 83.8435 47.9467 83.8435 47.664V46.752C83.8435 46.4747 83.8195 46.2213 83.7715 45.992C83.7235 45.7627 83.6488 45.568 83.5475 45.408C83.4515 45.248 83.3235 45.1253 83.1635 45.04C83.0035 44.9493 82.8115 44.904 82.5875 44.904C82.3635 44.904 82.1715 44.9493 82.0115 45.04C81.8515 45.1253 81.7208 45.248 81.6195 45.408C81.5235 45.568 81.4515 45.7627 81.4035 45.992C81.3555 46.2213 81.3315 46.4747 81.3315 46.752V47.664C81.3315 47.9467 81.3555 48.2027 81.4035 48.432C81.4515 48.656 81.5235 48.848 81.6195 49.008C81.7208 49.168 81.8515 49.2933 82.0115 49.384C82.1715 49.4693 82.3635 49.512 82.5875 49.512ZM82.5875 47.68C82.4008 47.68 82.2702 47.6427 82.1955 47.568C82.1262 47.4933 82.0915 47.4027 82.0915 47.296V47.12C82.0915 47.0133 82.1262 46.9227 82.1955 46.848C82.2702 46.7733 82.4008 46.736 82.5875 46.736C82.7742 46.736 82.9022 46.7733 82.9715 46.848C83.0462 46.9227 83.0835 47.0133 83.0835 47.12V47.296C83.0835 47.4027 83.0462 47.4933 82.9715 47.568C82.9022 47.6427 82.7742 47.68 82.5875 47.68ZM85.6644 50V49.416H87.2644V44.912H87.2084L85.8004 46.224L85.4084 45.8L86.8884 44.416H87.9364V49.416H89.4084V50H85.6644ZM92.1813 50.096C91.8399 50.096 91.5466 50.032 91.3013 49.904C91.0559 49.7707 90.8533 49.5813 90.6933 49.336C90.5333 49.0907 90.4159 48.7893 90.3413 48.432C90.2666 48.0747 90.2293 47.6667 90.2293 47.208C90.2293 46.7547 90.2666 46.3493 90.3413 45.992C90.4159 45.6293 90.5333 45.3253 90.6933 45.08C90.8533 44.8347 91.0559 44.648 91.3013 44.52C91.5466 44.3867 91.8399 44.32 92.1813 44.32C92.5226 44.32 92.8159 44.3867 93.0613 44.52C93.3066 44.648 93.5093 44.8347 93.6693 45.08C93.8293 45.3253 93.9466 45.6293 94.0213 45.992C94.0959 46.3493 94.1333 46.7547 94.1333 47.208C94.1333 47.6667 94.0959 48.0747 94.0213 48.432C93.9466 48.7893 93.8293 49.0907 93.6693 49.336C93.5093 49.5813 93.3066 49.7707 93.0613 49.904C92.8159 50.032 92.5226 50.096 92.1813 50.096ZM92.1813 49.512C92.4053 49.512 92.5973 49.4693 92.7573 49.384C92.9173 49.2933 93.0453 49.168 93.1413 49.008C93.2426 48.848 93.3173 48.656 93.3653 48.432C93.4133 48.2027 93.4373 47.9467 93.4373 47.664V46.752C93.4373 46.4747 93.4133 46.2213 93.3653 45.992C93.3173 45.7627 93.2426 45.568 93.1413 45.408C93.0453 45.248 92.9173 45.1253 92.7573 45.04C92.5973 44.9493 92.4053 44.904 92.1813 44.904C91.9573 44.904 91.7653 44.9493 91.6053 45.04C91.4453 45.1253 91.3146 45.248 91.2133 45.408C91.1173 45.568 91.0453 45.7627 90.9973 45.992C90.9493 46.2213 90.9253 46.4747 90.9253 46.752V47.664C90.9253 47.9467 90.9493 48.2027 90.9973 48.432C91.0453 48.656 91.1173 48.848 91.2133 49.008C91.3146 49.168 91.4453 49.2933 91.6053 49.384C91.7653 49.4693 91.9573 49.512 92.1813 49.512ZM92.1813 47.68C91.9946 47.68 91.8639 47.6427 91.7893 47.568C91.7199 47.4933 91.6853 47.4027 91.6853 47.296V47.12C91.6853 47.0133 91.7199 46.9227 91.7893 46.848C91.8639 46.7733 91.9946 46.736 92.1813 46.736C92.3679 46.736 92.4959 46.7733 92.5653 46.848C92.6399 46.9227 92.6773 47.0133 92.6773 47.12V47.296C92.6773 47.4027 92.6399 47.4933 92.5653 47.568C92.4959 47.6427 92.3679 47.68 92.1813 47.68ZM96.9781 50.096C96.6368 50.096 96.3435 50.032 96.0981 49.904C95.8528 49.7707 95.6501 49.5813 95.4901 49.336C95.3301 49.0907 95.2128 48.7893 95.1381 48.432C95.0635 48.0747 95.0261 47.6667 95.0261 47.208C95.0261 46.7547 95.0635 46.3493 95.1381 45.992C95.2128 45.6293 95.3301 45.3253 95.4901 45.08C95.6501 44.8347 95.8528 44.648 96.0981 44.52C96.3435 44.3867 96.6368 44.32 96.9781 44.32C97.3195 44.32 97.6128 44.3867 97.8581 44.52C98.1035 44.648 98.3061 44.8347 98.4661 45.08C98.6261 45.3253 98.7435 45.6293 98.8181 45.992C98.8928 46.3493 98.9301 46.7547 98.9301 47.208C98.9301 47.6667 98.8928 48.0747 98.8181 48.432C98.7435 48.7893 98.6261 49.0907 98.4661 49.336C98.3061 49.5813 98.1035 49.7707 97.8581 49.904C97.6128 50.032 97.3195 50.096 96.9781 50.096ZM96.9781 49.512C97.2021 49.512 97.3941 49.4693 97.5541 49.384C97.7141 49.2933 97.8421 49.168 97.9381 49.008C98.0395 48.848 98.1141 48.656 98.1621 48.432C98.2101 48.2027 98.2341 47.9467 98.2341 47.664V46.752C98.2341 46.4747 98.2101 46.2213 98.1621 45.992C98.1141 45.7627 98.0395 45.568 97.9381 45.408C97.8421 45.248 97.7141 45.1253 97.5541 45.04C97.3941 44.9493 97.2021 44.904 96.9781 44.904C96.7541 44.904 96.5621 44.9493 96.4021 45.04C96.2421 45.1253 96.1115 45.248 96.0101 45.408C95.9141 45.568 95.8421 45.7627 95.7941 45.992C95.7461 46.2213 95.7221 46.4747 95.7221 46.752V47.664C95.7221 47.9467 95.7461 48.2027 95.7941 48.432C95.8421 48.656 95.9141 48.848 96.0101 49.008C96.1115 49.168 96.2421 49.2933 96.4021 49.384C96.5621 49.4693 96.7541 49.512 96.9781 49.512ZM96.9781 47.68C96.7915 47.68 96.6608 47.6427 96.5861 47.568C96.5168 47.4933 96.4821 47.4027 96.4821 47.296V47.12C96.4821 47.0133 96.5168 46.9227 96.5861 46.848C96.6608 46.7733 96.7915 46.736 96.9781 46.736C97.1648 46.736 97.2928 46.7733 97.3621 46.848C97.4368 46.9227 97.4741 47.0133 97.4741 47.12V47.296C97.4741 47.4027 97.4368 47.4933 97.3621 47.568C97.2928 47.6427 97.1648 47.68 96.9781 47.68ZM101.775 50.096C101.434 50.096 101.14 50.032 100.895 49.904C100.65 49.7707 100.447 49.5813 100.287 49.336C100.127 49.0907 100.01 48.7893 99.935 48.432C99.8603 48.0747 99.823 47.6667 99.823 47.208C99.823 46.7547 99.8603 46.3493 99.935 45.992C100.01 45.6293 100.127 45.3253 100.287 45.08C100.447 44.8347 100.65 44.648 100.895 44.52C101.14 44.3867 101.434 44.32 101.775 44.32C102.116 44.32 102.41 44.3867 102.655 44.52C102.9 44.648 103.103 44.8347 103.263 45.08C103.423 45.3253 103.54 45.6293 103.615 45.992C103.69 46.3493 103.727 46.7547 103.727 47.208C103.727 47.6667 103.69 48.0747 103.615 48.432C103.54 48.7893 103.423 49.0907 103.263 49.336C103.103 49.5813 102.9 49.7707 102.655 49.904C102.41 50.032 102.116 50.096 101.775 50.096ZM101.775 49.512C101.999 49.512 102.191 49.4693 102.351 49.384C102.511 49.2933 102.639 49.168 102.735 49.008C102.836 48.848 102.911 48.656 102.959 48.432C103.007 48.2027 103.031 47.9467 103.031 47.664V46.752C103.031 46.4747 103.007 46.2213 102.959 45.992C102.911 45.7627 102.836 45.568 102.735 45.408C102.639 45.248 102.511 45.1253 102.351 45.04C102.191 44.9493 101.999 44.904 101.775 44.904C101.551 44.904 101.359 44.9493 101.199 45.04C101.039 45.1253 100.908 45.248 100.807 45.408C100.711 45.568 100.639 45.7627 100.591 45.992C100.543 46.2213 100.519 46.4747 100.519 46.752V47.664C100.519 47.9467 100.543 48.2027 100.591 48.432C100.639 48.656 100.711 48.848 100.807 49.008C100.908 49.168 101.039 49.2933 101.199 49.384C101.359 49.4693 101.551 49.512 101.775 49.512ZM101.775 47.68C101.588 47.68 101.458 47.6427 101.383 47.568C101.314 47.4933 101.279 47.4027 101.279 47.296V47.12C101.279 47.0133 101.314 46.9227 101.383 46.848C101.458 46.7733 101.588 46.736 101.775 46.736C101.962 46.736 102.09 46.7733 102.159 46.848C102.234 46.9227 102.271 47.0133 102.271 47.12V47.296C102.271 47.4027 102.234 47.4933 102.159 47.568C102.09 47.6427 101.962 47.68 101.775 47.68Z" fill="url(#paint0_linear)"/>
</g>
<g clip-path="url(#clip1)">
<rect x="4" y="16" width="53" height="24" fill="url(#paint1_linear)"/>
<rect x="4" y="38" width="40" height="11" fill="url(#paint2_linear)"/>
<rect x="27.0073" y="1" width="10" height="25.7927" transform="rotate(51.9489 27.0073 1)" fill="url(#paint3_linear)"/>
<path d="M48.3603 44.3083H47.6692L47.7663 44.9925C48.3955 49.4301 44.8902 53.4003 40.3247 53.4003H24.3932C24.3932 53.4003 24.3931 53.4003 24.3931 53.4003C22.5771 53.4 20.7669 53.195 18.9973 52.7893L3.13919 49.1511C1.65129 48.8098 0.600327 47.4923 0.600327 45.9773L0.600327 19.1103C0.600327 18.5917 0.724857 18.0804 0.963692 17.6191C1.20253 17.1578 1.54883 16.7598 1.97394 16.4583L22.3679 1.99779L22.0213 1.50896L22.3679 1.99777C25.7156 -0.376178 30.3773 0.346013 32.8201 3.62086C34.3806 5.71301 34.6445 8.31243 33.8133 10.5352L33.5104 11.3454H34.3753L49.6489 11.3454C54.5991 11.3454 58.1163 15.9398 56.9368 20.5287L56.8155 21.0006L57.2524 21.2162C62.6572 23.883 62.8799 31.5074 57.3335 34.3658L56.9056 34.5864L57.0282 35.0519C58.2712 39.7723 54.5843 44.3083 49.6712 44.3083H48.3603ZM24.3932 48.8142H24.9932V48.814H40.3247C41.2365 48.814 41.9709 48.4763 42.4736 47.9325C42.9679 47.3978 43.2083 46.6967 43.2074 46.0093C43.2066 45.3212 42.9639 44.6174 42.4544 44.0814C41.9372 43.5373 41.183 43.206 40.241 43.206H31.0004C30.2591 43.206 29.6629 42.6086 29.6629 41.8774V41.0509C29.6629 40.3197 30.2591 39.7223 31.0004 39.7223L49.6712 39.7223C50.5957 39.7223 51.3415 39.3878 51.8576 38.8484C52.3659 38.3173 52.622 37.6188 52.6366 36.9311C52.6513 36.2436 52.4249 35.5373 51.9296 34.9975C51.4261 34.4486 50.6835 34.1144 49.7548 34.1144L31.0004 34.1144C30.2591 34.1144 29.6629 33.517 29.6629 32.7858V31.9594C29.6629 31.2282 30.2591 30.6308 31.0004 30.6308L53.8035 30.6308C54.7281 30.6308 55.4738 30.2962 55.9899 29.7568C56.498 29.2257 56.754 28.5271 56.7686 27.8395C56.7831 27.152 56.5567 26.4457 56.0615 25.9059C55.5581 25.357 54.8156 25.0227 53.8872 25.0227L31.0004 25.0227C30.2591 25.0227 29.6629 24.4253 29.6629 23.6941V22.8678C29.6629 22.1366 30.2591 21.5392 31.0004 21.5392L49.5652 21.5392C50.4898 21.5392 51.2355 21.2046 51.7514 20.6651C52.2594 20.1339 52.515 19.4353 52.5295 18.7477C52.5439 18.0602 52.3173 17.3541 51.8224 16.8143C51.3191 16.2655 50.5769 15.9311 49.6489 15.9311L24.6437 15.9311C23.34 15.9311 22.8173 14.2654 23.8667 13.5212L28.4778 10.2513L28.1359 9.76909L28.4778 10.2513C29.2208 9.72444 29.6097 9.02372 29.6763 8.28677C29.7414 7.56582 29.4936 6.86711 29.0739 6.32209C28.2315 5.22806 26.5833 4.63971 25.0464 5.72943L25.0464 5.72945L5.46587 19.6147L5.21294 19.794V20.1041V44.4427V44.9206L5.67877 45.0275L20.0346 48.3211C21.4612 48.6484 22.9276 48.8142 24.3932 48.8142Z" fill="url(#paint4_linear)" stroke="white" stroke-width="1.2"/>
</g>
<path d="M116.144 19.048H120.784V27.752H130.32V19.048H134.96V41H130.32V31.752H120.784V41H116.144V19.048ZM146.31 41.384C143.6 41.384 141.574 40.6693 140.23 39.24C138.907 37.8107 138.246 35.592 138.246 32.584C138.246 29.576 138.907 27.3573 140.23 25.928C141.574 24.4987 143.6 23.784 146.31 23.784C148.806 23.784 150.672 24.5093 151.91 25.96C153.147 27.3893 153.766 29.5973 153.766 32.584V33.608H142.694C142.736 35.1013 143.035 36.2107 143.59 36.936C144.144 37.64 145.072 37.992 146.374 37.992C147.291 37.992 148.027 37.736 148.582 37.224C149.158 36.712 149.446 35.9867 149.446 35.048H153.766C153.766 37.16 153.083 38.7493 151.718 39.816C150.352 40.8613 148.55 41.384 146.31 41.384ZM149.222 30.696C149.222 28.3707 148.251 27.208 146.31 27.208C145.2 27.208 144.358 27.496 143.782 28.072C143.227 28.648 142.886 29.5227 142.758 30.696H149.222ZM157.147 17.864H161.531V41H157.147V17.864ZM166.053 24.168H169.797L170.085 26.376H170.309C170.843 25.5227 171.557 24.8827 172.453 24.456C173.349 24.008 174.341 23.784 175.429 23.784C177.563 23.784 179.216 24.52 180.389 25.992C181.563 27.4427 182.149 29.6507 182.149 32.616C182.149 35.5173 181.552 37.704 180.357 39.176C179.184 40.648 177.616 41.384 175.653 41.384C174.523 41.384 173.52 41.1813 172.645 40.776C171.792 40.3707 171.12 39.7947 170.629 39.048H170.437V46.536H166.053V24.168ZM174.021 37.576C175.323 37.576 176.251 37.192 176.805 36.424C177.36 35.6347 177.637 34.4507 177.637 32.872V32.296C177.637 30.7173 177.36 29.544 176.805 28.776C176.251 27.9867 175.323 27.592 174.021 27.592C171.632 27.592 170.437 29.16 170.437 32.296V32.808C170.437 35.9867 171.632 37.576 174.021 37.576ZM185.616 24.168H189.36L189.68 26.376H189.904C191.141 24.648 192.741 23.784 194.704 23.784C196.837 23.784 198.309 24.648 199.12 26.376H199.376C200.656 24.648 202.32 23.784 204.368 23.784C205.968 23.784 207.237 24.2533 208.176 25.192C209.136 26.1307 209.616 27.6347 209.616 29.704V41H205.232V30.632C205.232 28.648 204.41 27.656 202.768 27.656C201.914 27.656 201.21 28.008 200.656 28.712C200.101 29.3947 199.824 30.248 199.824 31.272V41H195.44V30.632C195.44 28.648 194.618 27.656 192.976 27.656C192.122 27.656 191.408 28.008 190.832 28.712C190.277 29.3947 190 30.248 190 31.272V41H185.616V24.168ZM217.925 41.384C216.624 41.384 215.429 41.0427 214.341 40.36C213.253 39.6773 212.709 38.44 212.709 36.648C212.709 34.4933 213.595 32.968 215.365 32.072C217.136 31.1547 219.643 30.696 222.885 30.696V29.512C222.885 28.7653 222.715 28.1893 222.373 27.784C222.053 27.3787 221.435 27.176 220.517 27.176C219.536 27.176 218.832 27.3253 218.405 27.624C218 27.9227 217.797 28.2747 217.797 28.68V29.16H213.573C213.552 29.032 213.541 28.7973 213.541 28.456C213.541 27.048 214.16 25.9173 215.397 25.064C216.656 24.2107 218.32 23.784 220.389 23.784C222.693 23.784 224.411 24.2533 225.541 25.192C226.693 26.1307 227.269 27.4853 227.269 29.256V36.68C227.269 37.064 227.376 37.352 227.589 37.544C227.803 37.7147 228.069 37.8 228.389 37.8H229.285V40.872C228.603 41.2133 227.76 41.384 226.757 41.384C225.883 41.384 225.147 41.192 224.549 40.808C223.973 40.424 223.579 39.88 223.365 39.176H223.173C222.555 39.9013 221.84 40.456 221.029 40.84C220.24 41.2027 219.205 41.384 217.925 41.384ZM219.301 37.928C220.539 37.928 221.445 37.5867 222.021 36.904C222.597 36.2 222.885 35.272 222.885 34.12V33.608C219.067 33.608 217.157 34.4613 217.157 36.168C217.157 36.7013 217.328 37.128 217.669 37.448C218.032 37.768 218.576 37.928 219.301 37.928ZM236.347 41.384C234.768 41.384 233.637 40.9573 232.955 40.104C232.272 39.2507 231.931 38.1733 231.931 36.872V27.752H229.915V24.168H232.027L232.763 19.432H236.315V24.168H239.227V27.752H236.315V36.424C236.315 37.3413 236.773 37.8 237.691 37.8H239.227V40.872C238.864 41 238.405 41.1173 237.851 41.224C237.317 41.3307 236.816 41.384 236.347 41.384ZM249.435 41.384C246.725 41.384 244.699 40.6693 243.355 39.24C242.032 37.8107 241.371 35.592 241.371 32.584C241.371 29.576 242.032 27.3573 243.355 25.928C244.699 24.4987 246.725 23.784 249.435 23.784C251.931 23.784 253.797 24.5093 255.035 25.96C256.272 27.3893 256.891 29.5973 256.891 32.584V33.608H245.819C245.861 35.1013 246.16 36.2107 246.715 36.936C247.269 37.64 248.197 37.992 249.499 37.992C250.416 37.992 251.152 37.736 251.707 37.224C252.283 36.712 252.571 35.9867 252.571 35.048H256.891C256.891 37.16 256.208 38.7493 254.843 39.816C253.477 40.8613 251.675 41.384 249.435 41.384ZM252.347 30.696C252.347 28.3707 251.376 27.208 249.435 27.208C248.325 27.208 247.483 27.496 246.907 28.072C246.352 28.648 246.011 29.5227 245.883 30.696H252.347ZM260.4 19.048H263.952V28.232H275.152V19.048H278.704V41H275.152V31.304H263.952V41H260.4V19.048ZM288.518 41.384C284.955 41.384 283.174 39.4533 283.174 35.592V24.168H286.47V35.176C286.47 36.4347 286.747 37.32 287.302 37.832C287.878 38.3227 288.71 38.568 289.798 38.568C290.544 38.568 291.238 38.3867 291.878 38.024C292.518 37.64 293.019 37.1067 293.382 36.424C293.766 35.7413 293.958 34.952 293.958 34.056V24.168H297.254V41H294.598L294.278 38.76H294.054C293.435 39.6133 292.656 40.264 291.718 40.712C290.779 41.16 289.712 41.384 288.518 41.384ZM309.966 41.384C308.856 41.384 307.843 41.16 306.926 40.712C306.03 40.264 305.315 39.6133 304.782 38.76H304.558L304.238 41H301.614V17.864H304.91V26.088H305.102C306.168 24.552 307.864 23.784 310.19 23.784C312.174 23.784 313.742 24.52 314.894 25.992C316.046 27.4427 316.622 29.64 316.622 32.584C316.622 35.5707 316.046 37.7893 314.894 39.24C313.742 40.6693 312.099 41.384 309.966 41.384ZM309.038 38.6C310.552 38.6 311.63 38.152 312.27 37.256C312.91 36.36 313.23 34.8667 313.23 32.776V32.488C313.23 30.3547 312.91 28.84 312.27 27.944C311.63 27.0267 310.552 26.568 309.038 26.568C307.608 26.568 306.563 27.0693 305.902 28.072C305.24 29.0747 304.91 30.5573 304.91 32.52V32.776C304.91 34.696 305.24 36.1467 305.902 37.128C306.563 38.1093 307.608 38.6 309.038 38.6Z" fill="black"/>
<defs>
<linearGradient id="paint0_linear" x1="109" y1="29" x2="61" y2="29" gradientUnits="userSpaceOnUse">
<stop/>
<stop offset="1" stop-opacity="0"/>
</linearGradient>
<linearGradient id="paint1_linear" x1="59.5" y1="61.5" x2="-1.51315e-06" y2="40" gradientUnits="userSpaceOnUse">
<stop stop-color="#00FFFF"/>
<stop offset="1" stop-color="#15237B"/>
</linearGradient>
<linearGradient id="paint2_linear" x1="62.5" y1="58" x2="-0.499999" y2="49" gradientUnits="userSpaceOnUse">
<stop stop-color="#00FFFF"/>
<stop offset="1" stop-color="#15237B"/>
</linearGradient>
<linearGradient id="paint3_linear" x1="93.2042" y1="6.47157" x2="24.5374" y2="4.15561" gradientUnits="userSpaceOnUse">
<stop offset="0.10491" stop-color="#00FFFF"/>
<stop offset="1" stop-color="#15237B"/>
</linearGradient>
<linearGradient id="paint4_linear" x1="62" y1="54" x2="25.5" y2="5.5" gradientUnits="userSpaceOnUse">
<stop stop-color="#00FFFF"/>
<stop offset="0.833333" stop-color="#2E3FAB"/>
</linearGradient>
<clipPath id="clip0">
<rect width="54" height="62" transform="matrix(0 1 1 0 47 0)" fill="white"/>
</clipPath>
<clipPath id="clip1">
<rect x="62" width="54" height="62" transform="rotate(90 62 0)" fill="white"/>
</clipPath>
</defs>
</svg>
