<svg width="180" height="132" viewBox="0 0 180 132" fill="none" xmlns="http://www.w3.org/2000/svg">
<rect width="180" height="132" rx="15" fill="white"/>
<rect x="22.3677" y="15.489" width="23.2941" height="100.848" rx="5" fill="black"/>
<rect x="25.0146" y="77.5289" width="23.232" height="72.5294" transform="rotate(-90 25.0146 77.5289)" fill="black"/>
<rect x="74.25" y="15.489" width="23.2941" height="100.848" rx="11.6471" fill="white"/>
<rect width="23.2941" height="100.848" rx="5" transform="matrix(-1 0 0 1 156.498 15.4889)" fill="url(#paint0_linear)"/>
<rect width="23.2882" height="99.9691" rx="7" transform="matrix(0.951545 -0.307509 0.308998 0.951063 74.4219 21.9912)" fill="url(#paint1_linear)"/>
<rect x="74.25" y="15.4889" width="23.2941" height="100.848" rx="5" fill="black"/>
<rect width="23.2882" height="99.9771" rx="7" transform="matrix(-0.951545 -0.307509 -0.308998 0.951063 156.326 21.9912)" fill="url(#paint2_linear)"/>
<rect width="22.3676" height="24.156" rx="10" transform="matrix(1 0 0 -1 104.162 116.292)" fill="url(#paint3_linear)"/>
<defs>
<linearGradient id="paint0_linear" x1="-22.0017" y1="100.511" x2="61.9983" y2="50.5111" gradientUnits="userSpaceOnUse">
<stop stop-color="#00FFFF"/>
<stop offset="1" stop-color="#1A00BC"/>
</linearGradient>
<linearGradient id="paint1_linear" x1="5.97245" y1="48.2044" x2="69.5289" y2="122.494" gradientUnits="userSpaceOnUse">
<stop stop-color="#1A00BC"/>
<stop offset="1" stop-color="#00FFFF"/>
</linearGradient>
<linearGradient id="paint2_linear" x1="-51.3971" y1="83.2792" x2="43.3751" y2="62.1372" gradientUnits="userSpaceOnUse">
<stop stop-color="#00FFFF"/>
<stop offset="1" stop-color="#1A00BC"/>
</linearGradient>
<linearGradient id="paint3_linear" x1="74.3381" y1="0.29199" x2="-6.16186" y2="52.292" gradientUnits="userSpaceOnUse">
<stop stop-color="#00FFFF"/>
<stop offset="1" stop-color="#1A00BC"/>
</linearGradient>
</defs>
</svg>
